<svg width="30" height="30" viewBox="0 0 30 30" fill="none" xmlns="http://www.w3.org/2000/svg">
<g clip-path="url(#clip0_55139_618)">
<path d="M11.1105 6.6174H1.90771V22.8253H11.1105V6.6174Z" fill="#49BDA0"/>
<path d="M28.4171 6.6174H19.2144V22.8253H28.4171V6.6174Z" fill="#EF4C53"/>
<path d="M19.6722 4.51132H10.4695V22.8253H19.6722V4.51132Z" fill="#E08026"/>
<path d="M10.4695 6.6174H1.90771V7.67045H10.4695V6.6174Z" fill="#43B191"/>
<path d="M28.3714 6.6174H19.6265V7.67045H28.3714V6.6174Z" fill="#DD4A55"/>
<path d="M19.6722 4.51132H10.4695V5.56437H19.6722V4.51132Z" fill="#D77627"/>
<path d="M8.86697 10.8296C8.86697 12.3405 7.63078 13.5309 6.16566 13.5309C4.65476 13.5309 3.46436 12.2948 3.46436 10.8296C3.46436 9.31873 4.70055 8.12833 6.16566 8.12833C7.63078 8.12833 8.86697 9.36452 8.86697 10.8296Z" fill="#EFEEEF"/>
<path d="M8.31744 9.22716C7.85959 8.90667 7.31017 8.67775 6.66918 8.67775C5.15828 8.67775 3.96788 9.91394 3.96788 11.3791C3.96788 11.9743 4.15102 12.5695 4.51729 12.9815C3.87631 12.4779 3.41846 11.6995 3.41846 10.8296C3.41846 9.31873 4.65465 8.12833 6.11977 8.12833C7.03546 8.12833 7.81381 8.58618 8.31744 9.22716Z" fill="#E8E1E7"/>
<path d="M15.048 12.5695C16.5399 12.5695 17.7493 11.36 17.7493 9.86815C17.7493 8.37626 16.5399 7.16684 15.048 7.16684C13.5561 7.16684 12.3467 8.37626 12.3467 9.86815C12.3467 11.36 13.5561 12.5695 15.048 12.5695Z" fill="#EFEEEF"/>
<path d="M26.6773 10.8296C26.6773 12.3405 25.4411 13.5309 23.976 13.5309C22.4651 13.5309 21.2747 12.2948 21.2747 10.8296C21.2747 9.31873 22.5108 8.12833 23.976 8.12833C25.4869 8.12833 26.6773 9.36452 26.6773 10.8296Z" fill="#EFEEEF"/>
<path d="M14.9564 8.72351L14.4986 8.99822L14.407 8.72351L15.0022 8.40302H15.3227V11.1043H14.9564V8.72351Z" fill="#3D3F4C"/>
<path d="M6.94391 11.7453C6.94391 11.7911 6.94391 11.7911 6.94391 11.7911V11.8369C6.94391 11.8369 6.94391 11.8369 6.89813 11.8827C6.89813 11.8827 6.89813 11.8827 6.85234 11.8827H5.38722H5.34144C5.34144 11.8827 5.29565 11.8827 5.29565 11.8369V11.7911C5.29565 11.7911 5.29565 11.7453 5.29565 11.6995C5.29565 11.6537 5.29565 11.6537 5.29565 11.608V11.5622C5.29565 11.5622 5.29565 11.5164 5.34144 11.5164L5.38722 11.4706L5.89086 10.9212C6.02821 10.7838 6.11978 10.6923 6.16557 10.6007C6.25714 10.5091 6.30292 10.4176 6.34871 10.326C6.44028 10.2802 6.44028 10.2344 6.44028 10.1428C6.44028 10.0971 6.44028 10.0055 6.44028 9.95971C6.44028 9.91392 6.44028 9.86814 6.39449 9.77657C6.39449 9.73078 6.34871 9.685 6.30292 9.63921C6.25714 9.59343 6.21135 9.54764 6.16557 9.54764C6.11978 9.54764 6.02821 9.50186 5.98243 9.50186C5.89086 9.50186 5.79929 9.50186 5.7535 9.54764C5.70772 9.59343 5.61615 9.59343 5.57036 9.63921C5.52458 9.685 5.47879 9.685 5.43301 9.73078C5.38722 9.77657 5.38722 9.77657 5.34144 9.77657C5.34144 9.77657 5.34144 9.77657 5.29565 9.77657C5.29565 9.77657 5.29565 9.77657 5.29565 9.73078V9.685C5.29565 9.685 5.29565 9.63921 5.29565 9.59343V9.54764V9.50186C5.29565 9.50186 5.29565 9.50186 5.29565 9.45607C5.29565 9.45607 5.29565 9.45608 5.34144 9.41029C5.34144 9.41029 5.38722 9.36451 5.43301 9.36451C5.47879 9.31872 5.52458 9.31872 5.57036 9.27294C5.61615 9.22715 5.70772 9.22715 5.7535 9.22715C5.84507 9.22715 5.89086 9.18137 5.98243 9.18137C6.11978 9.18137 6.21135 9.18137 6.30292 9.22715C6.39449 9.27294 6.48606 9.31872 6.53185 9.36451C6.57763 9.41029 6.62342 9.50186 6.6692 9.59343C6.71499 9.685 6.71499 9.77657 6.71499 9.86814C6.71499 9.95971 6.71499 10.0513 6.71499 10.0971C6.71499 10.1886 6.6692 10.2802 6.62342 10.3718C6.57763 10.4633 6.48606 10.5549 6.39449 10.6923C6.30292 10.8296 6.16557 10.967 6.02821 11.1043L5.7535 11.608H6.89813C6.89813 11.608 6.89813 11.608 6.94391 11.608C6.9897 11.608 6.94391 11.608 6.9897 11.6537V11.6995C6.9897 11.6995 6.94391 11.6995 6.94391 11.7453Z" fill="#3D3F4C"/>
<path d="M24.7542 11.1501C24.7542 11.2875 24.7542 11.3791 24.7084 11.4706C24.6626 11.5622 24.6169 11.6538 24.5253 11.6995C24.4337 11.7911 24.3421 11.8369 24.2506 11.8369C24.1132 11.8827 24.0217 11.8827 23.8385 11.8827C23.7469 11.8827 23.6554 11.8827 23.6096 11.8827C23.518 11.8827 23.4722 11.8369 23.4264 11.8369C23.3807 11.8369 23.3349 11.7911 23.2891 11.7911C23.2433 11.7911 23.2433 11.7453 23.1975 11.7453C23.1975 11.7453 23.1975 11.7453 23.1517 11.6995C23.1517 11.6995 23.1517 11.6995 23.1517 11.6538V11.608C23.1517 11.608 23.1517 11.5622 23.1517 11.5164C23.1517 11.4706 23.1517 11.4248 23.1517 11.4248L23.1975 11.3791C23.1975 11.3791 23.2433 11.3791 23.2891 11.4248C23.3349 11.4248 23.3807 11.4706 23.4264 11.5164C23.4722 11.5622 23.5638 11.5622 23.6096 11.608C23.7012 11.608 23.7927 11.6538 23.8843 11.6538C23.9759 11.6538 24.0674 11.6538 24.1132 11.608C24.2048 11.5622 24.2506 11.5622 24.2964 11.5164C24.3421 11.4706 24.3879 11.4248 24.3879 11.3791C24.4337 11.3333 24.4337 11.2417 24.4337 11.1959C24.4337 11.1043 24.4337 11.0586 24.3879 11.0128C24.3421 10.967 24.2964 10.9212 24.2506 10.8754C24.2048 10.8296 24.1132 10.7839 24.0217 10.7839C23.9301 10.6923 23.8385 10.6923 23.7469 10.6923H23.4722C23.4722 10.6923 23.4722 10.6923 23.4264 10.6923C23.4264 10.6923 23.4265 10.6923 23.3807 10.6465V10.6007C23.3807 10.6007 23.3807 10.5549 23.3807 10.5091C23.3807 10.4634 23.3807 10.4634 23.3807 10.4634V10.4176C23.3807 10.4176 23.3807 10.4176 23.4264 10.4176C23.4264 10.4176 23.4265 10.4176 23.4722 10.4176H23.7012C23.7927 10.4176 23.8843 10.4176 23.9301 10.3718C24.0217 10.326 24.0674 10.326 24.1132 10.2802C24.159 10.2344 24.2048 10.1886 24.2048 10.1429C24.2506 10.0971 24.2506 10.0055 24.2506 9.95972C24.2506 9.91394 24.2506 9.86815 24.2048 9.82237C24.2048 9.77658 24.159 9.7308 24.1132 9.68501C24.0674 9.63923 24.0217 9.63923 23.9759 9.59344C23.9301 9.59344 23.8385 9.54766 23.7927 9.54766C23.7012 9.54766 23.6554 9.54766 23.5638 9.59344C23.518 9.63923 23.4265 9.63923 23.3807 9.68501C23.3349 9.7308 23.2891 9.7308 23.2433 9.77658C23.1975 9.82237 23.1975 9.82237 23.1517 9.82237C23.1517 9.82237 23.1517 9.82237 23.106 9.82237V9.77658C23.106 9.77658 23.106 9.7308 23.106 9.68501V9.63923V9.59344C23.106 9.59344 23.106 9.59344 23.106 9.54766C23.106 9.54766 23.106 9.54766 23.1517 9.50187C23.1517 9.50187 23.1975 9.45609 23.2433 9.45609C23.2891 9.45609 23.3349 9.4103 23.3807 9.36452C23.4265 9.31873 23.518 9.31873 23.5638 9.31873C23.6554 9.31873 23.7012 9.27295 23.7927 9.27295C23.9301 9.27295 24.0217 9.27295 24.1132 9.31873C24.2048 9.36452 24.2964 9.4103 24.3421 9.45609C24.3879 9.50187 24.4337 9.59344 24.4795 9.63923C24.5253 9.7308 24.5253 9.82237 24.5253 9.91394C24.5253 10.0055 24.5253 10.0513 24.4795 10.1429C24.4795 10.2344 24.4337 10.2802 24.3879 10.326C24.3421 10.3718 24.2964 10.4176 24.2506 10.4634C24.2048 10.5091 24.1132 10.5091 24.0217 10.5549C24.1132 10.5549 24.2048 10.6007 24.2506 10.6007C24.3421 10.6465 24.3879 10.6923 24.4337 10.7381C24.4795 10.7839 24.5253 10.8754 24.5711 10.9212C24.7542 10.967 24.7542 11.0586 24.7542 11.1501Z" fill="#3D3F4C"/>
<path d="M26.1279 9.22716C25.6701 8.90666 25.1207 8.67774 24.4797 8.67774C22.9688 8.67774 21.7784 9.91393 21.7784 11.379C21.7784 11.9743 21.9615 12.5695 22.3278 12.9815C21.6868 12.4779 21.2289 11.6995 21.2289 10.8296C21.2289 9.31873 22.4651 8.12832 23.9303 8.12832C24.846 8.12832 25.6701 8.58617 26.1279 9.22716ZM17.2457 8.26568C16.7878 7.94518 16.2384 7.71626 15.5974 7.71626C14.0865 7.71626 12.8961 8.95245 12.8961 10.4176C12.8961 11.0128 13.0792 11.608 13.4455 12.02C12.8045 11.5164 12.3467 10.7381 12.3467 9.86815C12.3467 8.35725 13.5829 7.16684 15.048 7.16684C15.9637 7.16684 16.742 7.5789 17.2457 8.26568Z" fill="#E8E1E7"/>
<path d="M29.7906 22.1385H0.488281V25.1145H29.7906V22.1385Z" fill="#48495B"/>
<path d="M29.7906 22.1385V22.9168H3.09802C2.13654 22.9168 1.35819 23.6494 1.35819 24.5193V25.1145H0.488281V22.1385H29.7906Z" fill="#3D3F4C"/>
</g>
<defs>
<clipPath id="clip0_55139_618">
<rect width="29.3023" height="29.3023" fill="white" transform="translate(0.488281 0.161743)"/>
</clipPath>
</defs>
</svg>
