<svg width="31" height="30" viewBox="0 0 31 30" fill="none" xmlns="http://www.w3.org/2000/svg">
<g clip-path="url(#clip0_55139_1299)">
<path d="M25.7633 28.1387L19.1895 15.431C12.5651 27.8257 12.7748 28.7217 12.0166 28.329C11.7989 28.2163 11.714 27.9486 11.8267 27.7307L18.7954 14.2608C18.8713 14.1134 19.0235 14.0208 19.1895 14.0208C19.3556 14.0208 19.5078 14.1134 19.5836 14.2608L26.5524 27.7307C26.6647 27.9486 26.5797 28.2163 26.3621 28.329C26.1458 28.4407 25.8774 28.3581 25.7633 28.1387Z" fill="#273240"/>
<path d="M27.532 1.57135H10.8474V2.8278H27.532V1.57135Z" fill="#CEDEEF"/>
<path d="M26.6169 2.82782H11.7615V15.7213H26.6169V2.82782Z" fill="#E2EBF5"/>
<path d="M27.532 14.4648H10.8474V15.7213H27.532V14.4648Z" fill="#CEDEEF"/>
<path d="M5.13765 3.52211C5.13765 3.52211 4.41517 4.74242 4.70216 5.50583C4.98914 6.26925 6.15204 5.64427 6.19951 5.5612C6.24697 5.47813 5.95425 3.64678 5.9503 3.63488C5.94635 3.62303 5.76836 3.34217 5.7209 3.36987C5.67344 3.39758 5.13765 3.52211 5.13765 3.52211Z" fill="#273240"/>
<path d="M7.53521 17.6708L7.43145 17.8876C6.55691 21.5448 5.91785 24.9419 5.81294 27.7493L5.47184 27.7131C5.15906 24.8767 4.20367 20.7525 5.04003 18.5114L7.53521 17.6708ZM9.49806 27.2042L9.13858 27.1797C8.27474 24.0362 7.53521 20.8237 7.58924 18.7556C7.58924 18.7556 8.32468 17.8284 8.41219 17.6708C8.49996 17.5132 9.27643 18.1924 9.27643 18.1924L9.49806 27.2042ZM12.564 6.58476C12.5453 6.71108 12.473 6.77874 12.473 6.77874C12.473 6.77874 12.4648 7.38623 11.8226 7.57638L10.7299 9.03777L10.4427 8.68024L10.4824 8.09827L11.6061 7.1895C11.6061 7.1895 11.7324 6.89173 11.8859 6.78766C12.0394 6.68395 12.5828 6.45819 12.564 6.58476Z" fill="#F8B299"/>
<path d="M3.6123 11.634C3.646 11.7473 3.66856 11.8076 3.66856 11.8076C3.63948 11.7742 3.62207 11.7096 3.6123 11.634Z" fill="#FFC231"/>
<path d="M9.49825 18.8459C10.6298 17.467 8.69652 11.7348 8.69652 11.7348L7.68395 11.7209L6.28725 11.965C6.28725 11.965 5.54847 11.8268 5.3676 11.9688C4.1468 12.9266 4.49958 17.4013 4.73662 19.1024C5.38194 20.0592 7.80022 19.4626 9.49825 18.8459Z" fill="#273240"/>
<path d="M8.69652 11.7348C7.70597 12.0783 6.57495 12.1081 5.3676 11.9688C5.3676 11.9688 4.42757 8.498 4.05131 7.42132C3.76539 6.6033 4.20763 5.87624 4.90547 5.35977C5.81562 5.74691 6.64101 6.1884 7.30959 6.73067C7.32073 6.06151 7.15611 5.53634 6.70592 5.24567C6.70592 5.24567 7.98013 5.37282 8.25614 5.66433C8.8207 6.26121 8.88916 8.05896 8.93591 8.87915C8.99865 9.97733 8.69652 11.7348 8.69652 11.7348Z" fill="#4ED3A6"/>
<path d="M6.65683 4.64455C6.65683 4.64455 7.13685 4.59243 7.19337 4.21278C7.24993 3.83314 7.44173 3.62132 7.50433 3.41714C7.57044 3.20159 7.53261 2.80729 7.55281 2.51649C7.57301 2.22569 7.31346 1.70877 7.30996 1.69665C7.30645 1.68453 6.48257 1.61185 6.48257 1.61185L5.97772 1.97533L5.02056 2.79522C4.47145 2.46024 4.7135 3.43472 5.13763 3.52209C5.16254 3.7645 5.10189 4.69285 5.63444 4.85495C6.006 4.96803 6.20388 4.92763 6.31696 4.89939C6.43009 4.87111 6.65683 4.64455 6.65683 4.64455Z" fill="#F8B299"/>
<path d="M7.30955 6.73067C6.64093 6.1884 5.81554 5.74691 4.90543 5.35976C4.90543 5.35976 4.89811 5.36465 4.88452 5.37388C5.20409 4.46014 5.1026 3.78148 5.13772 3.52206C5.42462 4.56425 6.65691 4.64452 6.65691 4.64452L6.70584 5.24562C7.15607 5.53638 7.3207 6.06151 7.30955 6.73067Z" fill="#F7AA8E"/>
<path d="M4.27173 9.28987L8.09613 9.3285L11.3203 7.66626L10.4892 9.59799L8.00378 11.5977L4.51014 10.8083L4.27173 9.28987Z" fill="#E2EBF5"/>
<path d="M6.06783 28.7242C5.71194 28.7097 5.61413 28.2996 5.61413 28.2996V28.5223H5.5371C5.5371 28.5223 5.59531 28.2622 5.50172 28.1872C5.40804 28.1123 5.38806 27.9132 5.47193 27.7131L5.81303 27.7493C5.81303 27.7493 5.89908 28.2188 6.22802 28.2809C6.33701 28.3015 6.42376 28.7388 6.06783 28.7242ZM9.7185 28.2823C9.52586 28.2265 9.541 28.0111 9.541 28.0111L9.28505 27.636V28.0821H9.22005C9.22005 28.0821 9.16087 27.5726 9.05693 27.5041C8.953 27.4357 9.13871 27.1796 9.13871 27.1796L9.4982 27.2041C9.4982 27.2041 9.62376 27.6046 10.0049 27.8641C10.6086 28.2752 9.78328 28.3011 9.7185 28.2823Z" fill="#EF4743"/>
<path d="M5.46559 8.19699C5.37538 8.67759 4.44787 10.6152 4.44787 10.6152C4.08354 10.8709 3.82297 11.2105 3.66869 11.8077C3.66869 11.8077 3.64614 11.7473 3.61244 11.6341C3.45026 11.0912 3.02915 9.32935 3.58012 7.12763C3.65919 6.8125 4.11151 5.92814 4.55953 6.03412C5.46204 6.24736 5.68594 7.02165 5.46559 8.19699Z" fill="#3ACE9C"/>
<path d="M8.84096 10.4898C8.85428 10.6363 8.47695 11.2446 7.83758 11.2979C7.83758 11.2979 5.80417 12.1458 3.6687 11.8084C3.82409 11.2091 4.08155 10.8716 4.4501 10.6141C4.4501 10.6141 6.96295 11.2535 7.83314 11.0093C7.93969 10.9782 8.02853 10.5786 8.13953 10.5431C8.25052 10.5031 8.15284 10.6985 8.17504 10.7429C8.19724 10.7784 8.29492 10.8006 8.33048 10.7828C8.45923 10.7162 8.53027 10.33 8.67678 10.3211C8.73441 10.3166 8.83652 10.4321 8.84096 10.4898Z" fill="#F8B299"/>
<path d="M5.04919 2.93712C5.1097 2.97943 5.16071 3.02742 5.16666 3.0716C5.1822 3.18641 5.42426 3.15227 5.42426 2.91643C5.42426 2.68059 5.52668 2.61537 5.62911 2.57505C5.73153 2.5347 7.50672 2.58438 7.53775 2.07541C7.56879 1.56643 6.59728 0.389411 5.41804 1.15056C4.78236 1.56088 4.51264 2.56182 5.04919 2.93712Z" fill="#273240"/>
<path d="M17.175 6.50336C17.175 7.44849 16.4092 8.21426 15.4641 8.21426C14.5189 8.21426 13.7532 7.44849 13.7532 6.50336C13.7532 5.55818 14.5189 4.79565 15.4641 4.79565C15.573 4.79565 15.6787 4.80524 15.7812 4.82767C16.4733 4.95264 17.0148 5.49731 17.1429 6.18614C17.1654 6.2887 17.175 6.39445 17.175 6.50336Z" fill="#3D6ED4"/>
<path d="M17.691 6.08259L15.4641 6.50334L15.8848 4.28067C16.8028 4.44645 17.5211 5.16889 17.691 6.08259Z" fill="#507CD8"/>
<path d="M15.1664 10.9814V13.8268H14.1926V11.0118C14.5122 11.0118 14.8393 10.9966 15.1664 10.9814Z" fill="#F15956"/>
<path d="M16.8325 10.8065V13.8268H15.8586V10.9282C15.8652 10.9282 16.3894 10.8698 16.8325 10.8065Z" fill="#F57E23"/>
<path d="M18.4911 10.4717V13.8268H17.5173V10.6847C17.6016 10.6847 18.25 10.5369 18.4911 10.4717Z" fill="#3D6ED4"/>
<path d="M20.1572 9.98477V13.8268H19.1833V10.2891C19.5522 10.1661 19.2066 10.3241 20.1572 9.98477Z" fill="#FFC231"/>
<path d="M21.8156 9.24686V13.8268H20.8418V9.71094C20.8912 9.68626 21.451 9.4351 21.8156 9.24686Z" fill="#3ACE9C"/>
<path d="M23.4743 8.21216V13.8267H22.5081V8.86644C22.6954 8.75945 23.0885 8.50496 23.4743 8.21216Z" fill="#F15956"/>
<path d="M24.5012 6.56125C24.1741 6.88078 23.8318 7.20035 23.4742 7.48942C21.8734 8.81668 19.417 9.69567 19.1833 9.69567C17.2497 10.2759 15.2687 10.5163 13.2644 10.4184C17.2126 10.322 21.1825 9.0824 23.9306 6.05911L24.5012 6.56125Z" fill="#0D5169"/>
<path d="M24.6959 6.96345L23.5815 5.84685L25.0396 5.50943L24.6959 6.96345Z" fill="#0D5169"/>
</g>
<defs>
<clipPath id="clip0_55139_1299">
<rect width="29.3023" height="29.3023" fill="white" transform="translate(0.767334 0.161743)"/>
</clipPath>
</defs>
</svg>
