<svg width="30" height="30" viewBox="0 0 30 30" fill="none" xmlns="http://www.w3.org/2000/svg">
<g clip-path="url(#clip0_55139_368)">
<path d="M28.9642 0.662109H0.549805V16.7296H28.9642V0.662109Z" fill="#CEDEEF"/>
<path d="M28.2096 1.41687H1.30469V15.9748H28.2096V1.41687Z" fill="#E2EBF5"/>
<path d="M17.6706 23.1476L17.3774 23.1607C17.0908 19.7837 16.9325 16.8327 17.0039 14.6434H16.9269L15.7584 23.2676L15.4652 23.2807C15.4652 23.2807 14.69 15.807 14.1902 13.6548C14.0412 13.0142 14.0635 12.2797 14.1375 11.5317L14.6141 11.404L15.8813 11.0648L16.5771 10.8785L18.6214 11.3044C19.0302 12.812 19.0269 17.2296 17.6706 23.1476Z" fill="#6B1C1C"/>
<path d="M17.5898 3.4741C17.495 3.56409 17.5521 3.61635 17.5521 4.08132C17.5521 4.5463 16.8732 4.49404 16.8732 4.49404V4.64113C16.8732 4.64113 17.0822 5.11578 17.1011 5.22949C17.2866 6.35128 17.7922 6.46089 16.2945 6.26879C16.1092 6.24508 15.4497 5.55705 15.4212 5.55705C15.3931 5.55705 15.3902 4.64113 15.3902 4.64113L15.3883 3.88193L15.2363 3.05166L15.9815 1.98377C15.9815 1.98377 16.3488 1.75201 16.8611 1.82797C17.3735 1.90394 17.4476 2.65781 17.4476 2.65781C17.4476 2.65781 17.3813 2.84747 17.495 3.07053C17.6092 3.29362 17.6846 3.38362 17.5898 3.4741Z" fill="#F8B299"/>
<path d="M18.6062 23.8211C18.4988 23.4312 17.7208 23.6627 17.6707 23.1478L17.3776 23.1605C17.3701 23.2642 17.2762 23.8166 17.3667 23.8587C17.4663 23.9051 18.0008 24.0019 18.0323 24.0073C18.0639 24.0123 18.6764 24.076 18.6062 23.8211ZM16.6939 23.9412C16.5866 23.5513 15.8085 23.7828 15.7584 23.2679L15.4653 23.2806C15.4578 23.3843 15.3639 23.9367 15.4544 23.9788C15.554 24.0251 16.0885 24.122 16.12 24.1274C16.1516 24.1325 16.7641 24.1961 16.6939 23.9412Z" fill="#273240"/>
<path d="M15.3787 3.83021C15.3787 3.83021 15.5189 3.73777 15.5189 3.48906C15.5189 3.24034 15.5512 2.94643 15.745 2.99163C15.9388 3.03682 15.9872 3.25002 15.9872 3.25002H16.1681C16.1681 3.25002 15.9454 2.95886 16.1681 2.86088C16.3908 2.76289 16.2207 2.48958 16.2207 2.48958C16.2207 2.48958 17.8652 2.24517 17.4578 1.65731C17.0504 1.06944 14.6425 1.66889 14.849 2.74229C15.0582 3.83021 15.3787 3.83021 15.3787 3.83021Z" fill="#7D5231"/>
<path d="M18.6195 11.3027C18.2357 11.4392 17.7026 11.5287 17.1013 11.5842C16.436 11.6396 15.6939 11.6439 14.9817 11.6055C14.6917 11.5884 14.4102 11.5628 14.1373 11.533C14.1373 11.533 14.2141 10.3389 14.1288 9.95503C13.9113 8.97416 13.1479 6.91856 13.5147 5.9803C13.6938 5.52825 15.0542 4.7691 15.0542 4.7691L15.3911 4.64114L16.7857 6.14657L16.8752 4.64114C16.8752 4.64114 16.8752 4.64114 16.8795 4.64541C19.4307 5.15442 17.9137 6.89343 18.3466 9.78015C18.4447 10.4497 18.6195 11.3027 18.6195 11.3027Z" fill="#4ED3A6"/>
<path d="M18.8261 9.74775L18.347 9.78064C18.1776 8.62236 18.3955 6.72876 18.4056 6.38544L18.4061 6.38446C18.4061 6.38446 18.7733 8.08133 18.8261 8.65663C18.8507 8.92812 18.8261 9.74775 18.8261 9.74775Z" fill="#2EA57D"/>
<path d="M18.6977 12.363C18.5681 12.4927 18.2264 12.2681 18.2264 12.2169C18.2264 12.1656 18.3395 10.8067 18.3469 9.78064L18.8259 9.74774C18.8259 9.74774 18.8279 12.2328 18.6977 12.363ZM17.4513 12.1883C17.2592 12.1027 17.1489 11.9696 17.1058 11.9653C17.0332 11.9585 15.6896 11.7267 14.9831 11.6048C14.7291 11.5608 14.5579 11.5312 14.5579 11.5312L14.614 11.404L14.9493 10.6458C14.9493 10.6458 15.3857 10.8452 15.8812 11.0648C16.3356 11.2666 16.8398 11.4848 17.1029 11.5821C17.1934 11.6159 17.2558 11.6348 17.2776 11.6343C17.3449 11.6324 17.7431 11.539 17.8191 11.569C17.8955 11.599 17.6386 11.6537 17.6212 11.7118C17.5834 11.8366 17.807 11.988 18.001 12.0679C18.195 12.1472 17.6434 12.274 17.4513 12.1883Z" fill="#F8B299"/>
<path d="M14.9494 10.6458L14.558 11.5312C14.558 11.5312 13.0755 11.0764 12.9211 10.787C12.3762 9.76464 12.6167 6.712 13.5162 5.98189C14.002 5.58755 14.7646 6.57024 14.8047 7.47169C14.8333 8.10262 14.2425 9.93499 14.2425 9.93499L14.9494 10.6458Z" fill="#2EA57D"/>
<path d="M12.7947 12.0322L12.055 10.9267C12.055 10.9267 12.1576 10.5454 12.055 10.5405C11.9523 10.5356 11.9327 10.6823 11.9327 10.6823C11.9327 10.6823 11.6443 10.4916 11.4634 10.6285C11.2825 10.7654 11.3656 11.3374 11.4292 11.4254C11.4928 11.5134 12.3825 12.1343 12.4069 12.144C12.4314 12.1538 12.7947 12.0322 12.7947 12.0322Z" fill="#F7AA8E"/>
<path d="M15.5718 26.3678H15.1833L13.9117 21.4095L13.8014 21.4014L12.9949 20.9708L13.2457 20.1094C13.2457 20.1094 12.9631 19.099 12.9949 19.0516C13.0261 19.0048 13.3551 18.4406 13.4765 18.3701C13.5984 18.3001 15.0158 17.9631 15.0158 17.9631L14.2529 18.692C14.2529 18.692 15.2873 19.2199 15.3659 19.441C15.8585 20.8287 15.5718 26.3678 15.5718 26.3678Z" fill="#507CD8"/>
<path d="M10.6597 22.2828L9.47382 26.5485H9.12708L8.81274 22.2397L9.63543 21.7278L10.6597 22.2828Z" fill="#507CD8"/>
<path d="M13.2894 28.0718H13.8016C13.8014 28.0704 13.8015 28.0691 13.8013 28.0677L12.6877 22.2045C12.6617 22.0678 12.5296 21.9784 12.3932 22.0041C12.2566 22.03 12.1668 22.1618 12.1928 22.2985L13.2894 28.0718ZM7.26445 28.0718H6.7522C6.75242 28.0704 6.75229 28.0691 6.75255 28.0677L7.86617 22.2045C7.89215 22.0678 8.02427 21.9784 8.16057 22.0041C8.29723 22.03 8.387 22.1618 8.36103 22.2985L7.26445 28.0718Z" fill="#CEDEEF"/>
<path d="M18.6071 14.7858L18.3926 16.1826H0.470703L2.6999 14.7858H18.6071Z" fill="#A67650"/>
<path d="M18.0385 16.4716H1.03955V18.6919H18.0385V16.4716Z" fill="#7D5231"/>
<path d="M13.8368 20.8764C13.8368 20.8764 14.4596 20.6139 14.5999 20.913C14.7403 21.2121 13.6383 22.1598 13.1409 22.175L13.7028 20.8642L13.8368 20.8764Z" fill="#004861"/>
<path d="M14.4506 14.5191C14.4506 14.5191 14.8184 15.0353 14.8504 15.2385C14.8972 15.5372 14.6706 16.1447 14.0944 16.1825H13.4261C13.4261 16.1825 13.2464 15.764 13.2417 15.7179C13.2371 15.6718 13.6141 15.1126 13.6141 15.1126C13.6141 15.1126 13.8902 14.8974 13.8932 14.879C13.8962 14.8606 14.4506 14.5191 14.4506 14.5191Z" fill="#F8B299"/>
<path d="M13.8189 12.6308C14.1647 12.6886 14.4505 14.5191 14.4505 14.5191C14.427 15.161 14.0928 15.4878 13.5904 15.6441L12.9898 14.9526C12.9898 14.9526 12.9601 14.0441 12.9898 13.9788C13.0195 13.9135 13.3104 13.4087 13.352 13.3493C13.3935 13.29 13.6076 12.5955 13.8189 12.6308Z" fill="#EF4743"/>
<path d="M11.4496 11.3182V11.0773C11.4496 11.0773 11.804 10.8546 11.804 10.3959C11.804 9.93717 11.6793 9.13997 11.6615 8.98409C11.6437 8.82821 11.0469 8.71686 11.0469 8.71686L8.9136 9.58532C8.84741 9.92021 9.09932 10.3243 9.50147 10.7611L9.56314 11.2772C9.56314 11.2772 9.97803 11.4894 10.0315 11.4838C10.0849 11.4782 11.0915 11.4839 11.0915 11.4839L11.4496 11.3182Z" fill="#F8B299"/>
<path d="M11.0797 10.8064L9.69107 10.8537C9.69107 10.8537 8.97232 9.80403 8.91354 9.58524C8.85476 9.36649 8.35768 8.11595 9.72264 7.67016C11.0876 7.22436 11.9724 7.92828 11.9712 8.53014C11.9707 8.78036 11.3378 9.09154 11.277 9.91875C11.2375 10.4553 11.0797 10.8064 11.0797 10.8064ZM13.9696 28.0418V28.7087C13.9696 28.8493 13.8552 28.9636 13.7147 28.9636H13.3062C13.1657 28.9636 13.0513 28.8493 13.0513 28.7087V28.0418C13.0513 27.9008 13.1656 27.787 13.3062 27.787H13.7147C13.8552 27.787 13.9696 27.9008 13.9696 28.0418ZM6.58423 28.0418V28.7087C6.58423 28.8493 6.69855 28.9636 6.83911 28.9636H7.24762C7.38813 28.9636 7.5025 28.8493 7.5025 28.7087V28.0418C7.5025 27.9008 7.38818 27.787 7.24762 27.787H6.83911C6.69855 27.787 6.58423 27.9008 6.58423 28.0418ZM16.3219 26.9607C16.2345 27.0826 16.036 27.1884 15.7421 27.1884V27.2519C15.7421 27.2519 15.3371 27.3599 15.1969 27.3073C15.0564 27.2547 15.1834 26.3679 15.1834 26.3679H15.5718C15.5718 26.3679 15.6971 26.4525 15.782 26.5797C15.8666 26.7066 16.0968 26.7172 16.2162 26.683C16.3353 26.6484 16.4093 26.8391 16.3219 26.9607ZM9.61977 27.2099L9.63313 27.3162C9.60645 27.3986 9.13091 27.3694 9.05663 27.3694C8.98209 27.3694 9.11786 26.5546 9.11786 26.5546C9.11786 26.5546 9.12114 26.5524 9.12692 26.5483H9.47388C9.52045 26.737 9.7515 26.8198 9.83434 26.8526C9.88069 26.8707 9.91244 26.9148 9.91342 26.9644C9.91772 27.1686 9.61977 27.2099 9.61977 27.2099Z" fill="#273240"/>
<path d="M3.02612 16.4097L0.430908 27.791H0.999196L3.59236 16.4185C3.59303 16.4155 3.59201 16.4126 3.59258 16.4097L3.02612 16.4097ZM16.0519 16.4097H15.4854C15.486 16.4127 15.485 16.4155 15.4856 16.4185L18.0788 27.791H18.6471L16.0519 16.4097Z" fill="#A67650"/>
<path d="M18.3926 16.1826H0.470703V16.472H18.3926V16.1826Z" fill="#9C673D"/>
<path d="M11.8369 11.7433C11.8369 11.7433 9.81548 11.5891 9.0498 11.7433L9.31579 11.3181C9.99627 11.1876 10.71 11.1982 11.4495 11.3181L11.8369 11.7433Z" fill="#EF4743"/>
<path d="M6.31921 14.6315C6.31921 14.6315 5.60574 16.1827 6.13909 16.3271C6.67244 16.4716 6.85127 16.0439 6.85127 16.0439C6.85127 16.0439 7.00093 15.4397 6.99565 15.4134C6.99037 15.387 6.62799 14.2538 6.62799 14.2538L6.31921 14.6315Z" fill="#F8B299"/>
<path d="M7.45516 12.5487C6.86822 12.4634 6.31934 14.6315 6.31934 14.6315C6.40489 15.1169 6.55904 15.4287 6.82995 15.4453C6.82995 15.4453 7.59075 15.1765 7.60966 15.1079C7.62857 15.0393 7.73499 14.0023 7.73499 13.9292C7.73499 13.8562 7.80368 12.5993 7.45516 12.5487Z" fill="#EF4743"/>
<path d="M13.4917 14.9358C13.4917 14.9358 13.4464 15.1529 13.4278 15.1529C13.4091 15.1529 11.6386 15.4012 11.558 15.4385C11.4769 15.4758 8.92403 15.6561 8.82431 15.6435C8.72508 15.6314 7.37212 14.9973 7.37212 14.9973C7.37212 14.9973 7.12531 13.0645 7.45523 12.5487C7.62039 12.2896 8.36449 11.9649 9.04998 11.7433L9.31597 11.3182C9.99645 11.1877 10.7102 11.1983 11.4497 11.3182L11.837 11.7433C11.837 11.7433 13.5567 12.1559 13.8192 12.6309C14.1002 13.1406 13.4917 14.9358 13.4917 14.9358Z" fill="#F15956"/>
<path d="M13.0888 22.1938C12.2838 22.3151 7.96991 22.3151 7.16498 22.1938C6.36005 22.0724 6.29155 20.8191 6.67892 19.718C7.00781 18.7826 6.89349 15.9462 6.85118 15.1126C6.84514 14.9962 6.95138 14.9066 7.06526 14.9307C8.89977 15.3186 11.6017 15.3186 13.4367 14.9307C13.5505 14.9065 13.6568 14.9962 13.6508 15.1126C13.6085 15.9462 13.3452 18.8135 13.6741 19.7489C14.0614 20.85 13.8937 22.0723 13.0888 22.1938Z" fill="#0D5169"/>
<g clip-path="url(#clip1_55139_368)">
<path d="M24.1112 7.38742C24.1112 6.84078 23.6658 6.39542 23.1192 6.39542C22.5726 6.39542 22.1272 6.84078 22.1272 7.38742C22.1272 7.83833 22.4297 8.21849 22.8417 8.33919V12.9815C22.8417 13.1341 22.9666 13.259 23.1192 13.259C23.2718 13.259 23.3967 13.1341 23.3967 12.9815V8.33919C23.8088 8.21849 24.1112 7.83833 24.1112 7.38742ZM23.1192 7.82446C22.8778 7.82446 22.6822 7.62883 22.6822 7.38742C22.6822 7.14601 22.8778 6.95038 23.1192 6.95038C23.3606 6.95038 23.5562 7.14601 23.5562 7.38742C23.5562 7.62883 23.3606 7.82446 23.1192 7.82446Z" fill="url(#paint0_linear_55139_368)"/>
<path d="M25.6957 7.8522C25.1948 7.8522 24.78 8.22542 24.7134 8.70824H24.4373C24.2278 8.70824 24.0613 8.80397 23.9683 8.97601C23.892 9.11892 23.8823 9.2868 23.8823 9.40195V13.2035C23.8823 13.3561 24.0072 13.481 24.1598 13.481C24.3124 13.481 24.4373 13.3561 24.4373 13.2035V9.40195C24.4373 9.32842 24.4428 9.2868 24.4484 9.26321H24.798C24.9562 9.60174 25.2989 9.83621 25.6971 9.83621C26.2437 9.83621 26.6891 9.39085 26.6891 8.84421C26.6891 8.29757 26.2423 7.8522 25.6957 7.8522ZM25.6957 9.28125C25.4543 9.28125 25.2586 9.08562 25.2586 8.84421C25.2586 8.6028 25.4543 8.40717 25.6957 8.40717C25.9371 8.40717 26.1327 8.6028 26.1327 8.84421C26.1327 9.08562 25.9371 9.28125 25.6957 9.28125Z" fill="url(#paint1_linear_55139_368)"/>
<path d="M21.6625 8.70824H21.5446C21.478 8.22542 21.0632 7.8522 20.5623 7.8522C20.0157 7.8522 19.5703 8.29757 19.5703 8.84421C19.5703 9.39085 20.0157 9.83621 20.5623 9.83621C20.9591 9.83621 21.3032 9.60174 21.4614 9.26321H21.6625C21.7389 9.26321 21.8013 9.32564 21.8013 9.40195V13.2035C21.8013 13.3561 21.9262 13.481 22.0788 13.481C22.2314 13.481 22.3563 13.3561 22.3563 13.2035V9.40195C22.3563 9.01902 22.0455 8.70824 21.6625 8.70824ZM20.5623 9.28125C20.3209 9.28125 20.1253 9.08562 20.1253 8.84421C20.1253 8.6028 20.3209 8.40717 20.5623 8.40717C20.8037 8.40717 20.9994 8.6028 20.9994 8.84421C20.9994 9.08562 20.8037 9.28125 20.5623 9.28125Z" fill="url(#paint2_linear_55139_368)"/>
</g>
</g>
<defs>
<linearGradient id="paint0_linear_55139_368" x1="19.8171" y1="9.8272" x2="26.4511" y2="9.8272" gradientUnits="userSpaceOnUse">
<stop stop-color="#FF884B"/>
<stop offset="0.35" stop-color="#FF634C"/>
<stop offset="0.655" stop-color="#FE4A4F"/>
<stop offset="1" stop-color="#FE4840"/>
</linearGradient>
<linearGradient id="paint1_linear_55139_368" x1="19.8172" y1="10.6666" x2="26.4511" y2="10.6666" gradientUnits="userSpaceOnUse">
<stop stop-color="#FF884B"/>
<stop offset="0.35" stop-color="#FF634C"/>
<stop offset="0.655" stop-color="#FE4A4F"/>
<stop offset="1" stop-color="#FE4840"/>
</linearGradient>
<linearGradient id="paint2_linear_55139_368" x1="19.8173" y1="10.6666" x2="26.4512" y2="10.6666" gradientUnits="userSpaceOnUse">
<stop stop-color="#FF884B"/>
<stop offset="0.35" stop-color="#FF634C"/>
<stop offset="0.655" stop-color="#FE4A4F"/>
<stop offset="1" stop-color="#FE4840"/>
</linearGradient>
<clipPath id="clip0_55139_368">
<rect width="29.3023" height="29.3023" fill="white" transform="translate(0.0463867 0.161743)"/>
</clipPath>
<clipPath id="clip1_55139_368">
<rect width="7.1036" height="7.10359" fill="white" transform="translate(19.5813 6.37738)"/>
</clipPath>
</defs>
</svg>
