<svg width="30" height="30" viewBox="0 0 30 30" fill="none" xmlns="http://www.w3.org/2000/svg">
<g clip-path="url(#clip0_55139_724)">
<path d="M0.989258 0.161743H28.9638V1.6818H0.989258V0.161743ZM0.989258 16.191H28.9638V17.7111H0.989258V16.191Z" fill="#EF736A"/>
<path d="M2.46362 1.68179H27.4942V16.1864H2.46362V1.68179Z" fill="#F2F2F0"/>
<path d="M8.62158 7.72998H9.75247V14.3093H8.62158V7.72998ZM10.9383 6.49379H12.0692V14.3093H10.9383V6.49379ZM13.255 4.91879H14.3859V14.3093H13.255V4.91879ZM15.5763 8.82882H16.7072V14.3093H15.5763V8.82882ZM19.7153 8.01843H20.8461V14.3093H19.7153V8.01843ZM17.893 9.70331H19.0239V14.3093H17.893V9.70331Z" fill="#9FD16F"/>
<path d="M23.9413 14.5245L22.3526 13.6088V14.3093H7.14285V4.01684H7.84794L6.92766 2.4281L6.01196 4.01684H6.71247V14.7397H22.3526V15.4402L23.9413 14.5245Z" fill="#4C4C4C"/>
<path d="M23.7765 23.9012H26.0566V24.8123H23.7765V23.9012ZM26.7296 22.2117C27.1737 22.2072 27.105 23.1137 26.5281 23.2373L26.7296 22.2117ZM23.0943 22.2117C22.6502 22.2072 22.7188 23.1137 23.2957 23.2373L23.0943 22.2117Z" fill="#FFE09C"/>
<path d="M24.2983 19.6386C25.2598 18.9427 26.757 19.4875 26.8119 20.7054L26.7432 22.9626C26.7346 23.2856 26.6 23.5924 26.3681 23.8174C26.1363 24.0425 25.8256 24.1678 25.5025 24.1668H24.3212C23.6528 24.1668 23.1033 23.6357 23.0805 22.9672L23.0164 21.0122C23.14 20.0599 23.5337 19.515 24.2983 19.6386Z" fill="#3A556D"/>
<path d="M29.1149 29.4641H20.7088C20.5486 28.5072 20.5531 27.4678 20.7088 26.6071C20.9469 25.8516 21.7756 25.5357 23.1171 25.1008H26.7112C28.0527 25.5403 28.8768 25.8516 29.1195 26.6071C29.2752 27.4678 29.2752 28.5072 29.1149 29.4641Z" fill="#C2A0D8"/>
<path d="M26.1436 24.5285H23.5064C23.4553 24.5285 23.4046 24.5385 23.3574 24.5581C23.3102 24.5777 23.2673 24.6063 23.2312 24.6425C23.195 24.6786 23.1664 24.7215 23.1468 24.7687C23.1273 24.8159 23.1172 24.8665 23.1172 24.9176V25.0962H26.7113C26.7113 24.7849 26.4549 24.5285 26.1436 24.5285Z" fill="#AA87C6"/>
<path d="M13.8366 23.9012H16.1167V24.8123H13.8366V23.9012ZM16.7943 22.2117C17.2384 22.2072 17.1697 23.1137 16.5928 23.2373L16.7943 22.2117ZM13.159 22.2117C12.7149 22.2072 12.7835 23.1137 13.3604 23.2373L13.159 22.2117Z" fill="#FFE09C"/>
<path d="M14.3585 19.6386C15.3199 18.9427 16.8171 19.4875 16.872 20.7054L16.8079 22.9626C16.7993 23.2856 16.6647 23.5924 16.4328 23.8174C16.201 24.0425 15.8903 24.1678 15.5672 24.1668H14.3859C13.7175 24.1668 13.168 23.6357 13.1452 22.9672L13.0811 21.0122C13.2001 20.0599 13.5984 19.515 14.3585 19.6386Z" fill="#3A556D"/>
<path d="M19.1796 29.4641H10.7735C10.6133 28.5072 10.6178 27.4678 10.7735 26.6071C11.0116 25.8516 11.8403 25.5357 13.1818 25.1008H16.7759C18.1174 25.5403 18.9415 25.8516 19.1842 26.6071C19.3353 27.4678 19.3399 28.5072 19.1796 29.4641Z" fill="#5BADAF"/>
<path d="M16.2083 24.5285H13.5711C13.5199 24.5285 13.4693 24.5385 13.4221 24.5581C13.3749 24.5777 13.332 24.6063 13.2959 24.6425C13.2597 24.6786 13.2311 24.7215 13.2115 24.7687C13.192 24.8159 13.1819 24.8665 13.1819 24.9176V25.0962H16.776C16.776 24.7849 16.5196 24.5285 16.2083 24.5285Z" fill="#50A0A0"/>
<path d="M3.90128 23.9012H6.18137V24.8123H3.90128V23.9012ZM6.85898 22.2117C7.3031 22.2072 7.23442 23.1137 6.65753 23.2373L6.85898 22.2117ZM3.22366 22.2117C2.77955 22.2072 2.84823 23.1137 3.42512 23.2373L3.22366 22.2117Z" fill="#FFE09C"/>
<path d="M4.42309 19.6386C5.38457 18.9427 6.88174 19.4875 6.93668 20.7054L6.87258 22.9626C6.86397 23.2856 6.72934 23.5924 6.49748 23.8174C6.26561 24.0425 5.95491 24.1678 5.63181 24.1668H4.44598C3.77752 24.1668 3.2281 23.6357 3.20521 22.9672L3.14111 21.0122C3.26473 20.0599 3.65848 19.515 4.42309 19.6386Z" fill="#3A556D"/>
<path d="M9.24431 29.4641H0.838201C0.677954 28.5072 0.682533 27.4678 0.838201 26.6071C1.07628 25.8516 1.90499 25.5357 3.24649 25.1008H6.8406C8.1821 25.5403 9.00622 25.8516 9.24888 26.6071C9.39998 27.4678 9.40455 28.5072 9.24431 29.4641Z" fill="#E5AF88"/>
<path d="M6.26832 24.5285H3.63111C3.58001 24.5285 3.5294 24.5385 3.48219 24.5581C3.43497 24.5777 3.39207 24.6063 3.35593 24.6425C3.31979 24.6786 3.29113 24.7215 3.27157 24.7687C3.25201 24.8159 3.24194 24.8665 3.24194 24.9176V25.0962H6.83606C6.83606 24.7849 6.58424 24.5285 6.26832 24.5285Z" fill="#D6A07C"/>
</g>
<defs>
<clipPath id="clip0_55139_724">
<rect width="29.3023" height="29.3023" fill="white" transform="translate(0.325439 0.161743)"/>
</clipPath>
</defs>
</svg>
